# xmcd
#
# Track frame offsets: 
#        183
#        14940
#        33070
#        48973
#        74403
#        87030
#        102928
#        128415
#        141055
#        179108
#        192613
#        209478
#        227230
#        242545
#        253450
#        268568
#        283163
#        302683
#
# Disc length: 4227 seconds
#
# Revision: 2
# Processed by: cddbd v1.5.2PL0 Copyright (c) Steve Scherf et al.
# Submitted via: ExactAudioCopyFreeDBPlugin 1.0
#
DISCID=10108112
DTITLE=Al Green - Explores Your Mind
DYEAR=1974
DGENRE=Southern Soul
TTITLE0=Livin' For You
TTITLE1=Home Again
TTITLE2=Free At Last
TTITLE3=Let's Get Married
TTITLE4=So Good To Be Here
TTITLE5=Sweet Sixteen
TTITLE6=Unchained Melody
TTITLE7=My God Is Real
TTITLE8=Beware
TTITLE9=Sha-La-La (Make Me Happy)
TTITLE10=Take Me To The River
TTITLE11=God Blessed Our Love
TTITLE12=The City
TTITLE13=One Nite Stand
TTITLE14=I'm Hooked On You
TTITLE15=Stay With Me Forever
TTITLE16=Hangin' On
TTITLE17=School Days
EXTD=
EXTT0=
EXTT1=
EXTT2=
EXTT3=
EXTT4=
EXTT5=
EXTT6=
EXTT7=
EXTT8=
EXTT9=
EXTT10=
EXTT11=
EXTT12=
EXTT13=
EXTT14=
EXTT15=
EXTT16=
EXTT17=
PLAYORDER=
